# xmcd
#
# Track frame offsets: 
#        150
#        17983
#        35379
#        50084
#        68376
#        83598
#        102656
#        122415
#        138790
#        158772
#        189781
#        205398
#        222960
#        244777
#
# Disc length: 3451 seconds
#
# Revision: 0
# Processed by: cddbd v1.5.1PL0 Copyright (c) Steve Scherf et al.
# Submitted via: ExactAudioCopy v0.95a3
#
DISCID=b70d790e
DTITLE=Neil Young with The Internatinal Harvesters - San Jose CA 0606 
DYEAR=1984
DGENRE=Country
TTITLE0=01 Are You Ready for the Country
TTITLE1=02 Motor City
TTITLE2=03 Comes a Time
TTITLE3=04 Hawks and Doves
TTITLE4=05 Saddle Up the Palomino
TTITLE5=06 Old Man
TTITLE6=07 Amber Jean
TTITLE7=08 Roll Another Number
TTITLE8=09 The Ways of Love
TTITLE9=10 Southern Pacific
TTITLE10=11 It Might Have Been
TTITLE11=12 Heart of Gold
TTITLE12=13 California Sunset
TTITLE13=14 Get Back to the Country
EXTD=
EXTT0=
EXTT1=
EXTT2=
EXTT3=
EXTT4=
EXTT5=
EXTT6=
EXTT7=
EXTT8=
EXTT9=
EXTT10=
EXTT11=
EXTT12=
EXTT13=
PLAYORDER=
